<?xml version="1.0" standalone="no"?>
<!DOCTYPE svg PUBLIC "-//W3C//DTD SVG 20010904//EN"
 "http://www.w3.org/TR/2001/REC-SVG-20010904/DTD/svg10.dtd">
<svg version="1.0" xmlns="http://www.w3.org/2000/svg"
 width="1250.000000pt" height="313.000000pt" viewBox="0 0 1250.000000 313.000000"
 preserveAspectRatio="xMidYMid meet">

<g transform="translate(0.000000,313.000000) scale(0.100000,-0.100000)"
fill="#000000" stroke="none">
<path d="M0 1565 l0 -1565 6250 0 6250 0 0 1565 0 1565 -6250 0 -6250 0 0
-1565z m7057 1013 c-3 -7 -5 -2 -5 12 0 14 2 19 5 13 2 -7 2 -19 0 -25z
m-2197 1 c0 -11 -4 -18 -10 -14 -5 3 -7 12 -3 20 7 21 13 19 13 -6z m2153 8
c4 3 7 -1 7 -9 0 -9 9 -18 21 -21 12 -3 19 -9 16 -14 -2 -4 -1 -17 4 -28 7
-18 8 -17 8 6 1 36 37 51 85 37 20 -7 37 -18 37 -27 1 -13 2 -13 6 2 2 9 5 17
6 18 1 0 43 3 92 6 50 2 96 9 103 15 22 19 52 -19 52 -66 0 -32 -5 -45 -22
-56 -28 -17 -54 -19 -50 -2 1 7 -10 12 -29 12 l-31 0 4 -107 c3 -60 3 -127 0
-151 -4 -43 -4 -43 -41 -40 l-36 3 -1 70 c-1 83 -16 152 -27 120 -4 -11 -3
-42 1 -70 6 -44 0 -146 -8 -120 -6 20 -7 43 -9 170 l-1 130 -69 0 -69 0 -4
-105 c-4 -119 -20 -161 -75 -193 -67 -38 -195 -29 -242 17 -22 22 -26 36 -27
89 -1 34 -5 80 -10 102 -6 22 -7 59 -3 83 4 27 2 42 -5 43 -6 0 -6 3 2 6 6 2
12 13 12 24 0 16 7 19 45 19 40 0 45 -3 46 -22 3 -143 13 -255 22 -266 28 -34
95 -27 110 11 3 8 6 72 6 142 1 116 3 130 24 155 14 17 26 24 33 19 6 -5 14
-6 17 -2z m-2193 -34 c0 -8 4 -12 9 -8 5 3 12 1 16 -5 4 -6 11 -7 17 -4 7 5 9
-2 6 -19 -3 -16 -1 -24 6 -21 6 2 12 -7 12 -21 2 -19 -1 -23 -10 -15 -22 17
-26 0 -26 -114 0 -125 -13 -159 -72 -197 -28 -17 -46 -20 -120 -17 -79 3 -89
5 -116 31 -26 25 -30 35 -30 90 0 34 -5 74 -10 89 -9 22 -8 176 1 185 2 2 24
6 49 9 l46 6 4 -142 c3 -135 5 -143 27 -161 28 -23 49 -24 79 -3 21 14 22 22
22 160 0 109 3 144 13 144 7 0 18 9 24 19 14 22 53 18 53 -6z m858 -13 c7 0
12 -6 12 -12 0 -10 2 -10 8 0 6 8 38 14 88 16 43 2 86 7 95 11 25 10 31 -9 18
-59 l-11 -46 -99 0 -99 0 0 -67 c0 -38 3 -84 6 -103 l6 -35 71 6 c40 3 79 8
87 12 29 12 51 -18 48 -64 -3 -37 -8 -46 -32 -58 -21 -10 -30 -10 -35 -2 -8
13 -214 17 -244 5 -17 -6 -18 1 -14 107 3 63 8 148 11 189 5 53 4 71 -3 60 -9
-12 -11 -10 -11 11 0 26 23 45 41 33 5 -3 9 3 9 12 0 16 1 16 18 1 10 -10 24
-17 30 -17z m317 20 c6 -4 44 -8 85 -9 90 -2 140 -10 140 -22 0 -5 7 -9 15 -9
9 0 21 -12 27 -27 14 -33 50 -72 47 -52 -3 26 1 35 31 67 27 30 36 33 108 39
54 4 91 2 118 -8 21 -7 43 -12 47 -11 5 1 6 -2 2 -8 -3 -5 -2 -10 2 -10 10 0
43 -53 43 -68 0 -12 -21 -21 -66 -28 -25 -4 -38 0 -58 21 -30 30 -64 32 -100
4 -23 -18 -26 -27 -26 -83 0 -83 27 -115 90 -106 20 2 60 40 60 57 0 16 8 16
65 1 38 -10 48 -10 54 1 6 9 10 3 13 -18 2 -17 0 -31 -5 -31 -16 0 -67 -62
-60 -73 3 -6 1 -7 -4 -4 -6 4 -27 0 -47 -8 -19 -8 -47 -15 -61 -15 -22 0 -25
4 -27 38 l-1 37 -4 -37 c-4 -35 -7 -38 -34 -38 -30 0 -103 31 -113 49 -3 5
-15 7 -26 4 -15 -4 -20 0 -20 13 0 16 2 16 10 4 13 -21 23 -5 11 18 -8 14 -8
21 0 24 5 2 12 12 14 23 2 11 4 20 5 20 2 0 3 54 1 78 0 10 -5 15 -11 12 -5
-3 -10 0 -11 7 0 7 -4 4 -9 -7 -8 -19 -9 -19 -9 3 -1 32 -15 27 -26 -10 -9
-29 -41 -55 -89 -71 -5 -2 -6 -9 -2 -16 6 -8 11 -9 20 -2 10 8 22 1 47 -26 18
-21 34 -42 35 -48 0 -5 2 -16 2 -22 1 -7 9 -13 17 -13 8 0 15 -6 15 -12 0 -16
-20 -47 -20 -33 0 6 -5 3 -10 -5 -6 -9 -10 -10 -10 -3 0 12 -75 11 -87 -1 -3
-3 -21 25 -39 62 -18 37 -47 82 -64 100 l-30 33 0 -95 0 -96 -45 0 c-25 0 -46
3 -46 8 -5 26 -4 64 1 67 10 6 -6 96 -18 104 -13 8 -12 212 2 227 12 12 37 14
51 4z m-1017 -19 c18 -1 22 -7 24 -33 l1 -33 4 33 c4 32 5 32 57 32 66 0 113
-16 128 -43 6 -11 12 -47 14 -79 3 -53 0 -62 -25 -90 -26 -29 -35 -33 -100
-36 l-72 -4 2 -65 c2 -47 -2 -67 -12 -73 -15 -10 -99 -2 -112 10 -5 4 -1 25 8
46 18 44 26 195 10 201 -9 3 -10 105 -1 129 2 6 15 10 28 9 13 -1 33 -3 46 -4z
m369 -4 c1 -1 3 -87 4 -190 2 -129 0 -190 -8 -195 -6 -4 -34 -5 -62 -4 -48 4
-51 5 -51 32 0 16 5 30 12 32 28 10 25 248 -4 248 -5 0 -6 5 -2 11 6 11 9 23
13 68 1 10 12 12 49 6 26 -4 48 -8 49 -8z m-123 -29 c3 -16 2 -28 -3 -28 -11
0 -22 40 -15 52 8 12 10 9 18 -24z m286 17 c34 -18 39 -30 42 -111 3 -69 -8
-89 -59 -111 -18 -7 -55 -13 -83 -13 l-50 0 0 38 c0 36 2 39 38 48 28 7 38 15
40 32 5 32 -15 52 -49 52 -27 0 -29 3 -29 40 l0 40 60 0 c35 0 74 -7 90 -15z
m300 -99 c0 -3 -4 -8 -10 -11 -5 -3 -10 -1 -10 4 0 6 5 11 10 11 6 0 10 -2 10
-4z m26 -26 c30 0 54 -4 54 -9 0 -5 -3 -23 -6 -40 l-6 -31 -89 0 -89 0 0 40
c0 39 1 40 35 40 21 0 35 5 36 13 0 10 2 10 6 0 3 -8 25 -13 59 -13z m484 -18
c0 -5 -7 -17 -15 -28 -14 -18 -14 -17 -4 9 12 27 19 34 19 19z m-378 -104 c-6
-6 -9 0 -9 18 0 23 1 24 9 10 7 -12 7 -21 0 -28z m-1450 -7 c3 -21 1 -28 -9
-24 -7 3 -13 9 -13 14 0 4 -8 6 -17 3 -12 -4 -9 1 7 15 14 11 26 21 26 21 1 0
4 -13 6 -29z m1439 -34 c-10 -9 -11 -8 -5 6 3 10 9 15 12 12 3 -3 0 -11 -7
-18z m-1461 -1 c0 -3 -4 -8 -10 -11 -5 -3 -10 -1 -10 4 0 6 5 11 10 11 6 0 10
-2 10 -4z m1760 -111 c0 -7 -12 -12 -27 -12 -21 0 -23 1 -9 9 9 5 14 13 11 19
-3 5 1 6 9 3 9 -3 16 -12 16 -19z m-1242 -354 c90 -46 124 -137 83 -226 -22
-48 -44 -69 -94 -90 -156 -65 -317 79 -253 228 39 93 169 136 264 88z m2011
-171 l1 -76 -51 -2 c-48 -2 -50 -1 -64 32 -28 67 14 143 64 116 20 -10 21 -8
21 28 0 21 3 42 8 46 10 11 21 -57 21 -144z m-538 120 c21 -12 26 -59 8 -77
-9 -9 -8 -16 5 -28 17 -17 21 -52 8 -72 -9 -14 -56 -33 -81 -33 -16 0 -19 13
-24 101 -4 56 -4 106 -1 110 7 12 61 11 85 -1z m-1171 -76 c0 -86 11 -114 44
-114 31 0 46 41 46 126 0 36 4 64 10 64 6 0 10 -35 10 -84 0 -65 -4 -88 -17
-104 -28 -31 -56 -35 -86 -11 -26 19 -27 25 -27 110 0 53 4 89 10 89 6 0 10
-32 10 -76z m970 41 c0 -8 7 -15 15 -15 8 0 15 -4 15 -10 0 -5 -7 -10 -15 -10
-12 0 -15 -13 -15 -55 0 -42 3 -55 15 -55 8 0 15 -7 15 -16 0 -10 -7 -14 -22
-12 -25 3 -35 31 -37 96 -1 23 -6 42 -11 42 -6 0 -3 11 6 25 18 28 34 33 34
10z m579 -47 c17 -48 14 -118 -4 -118 -12 0 -15 13 -15 60 0 45 -4 62 -15 66
-29 11 -45 -16 -45 -73 0 -39 -4 -54 -12 -51 -9 3 -14 30 -16 77 -3 66 -1 72
15 67 10 -3 24 -2 32 3 23 14 49 1 60 -31z m-1299 12 c14 -14 20 -33 20 -63 0
-56 -25 -82 -70 -74 -29 6 -30 5 -30 -28 0 -19 -4 -35 -10 -35 -6 0 -10 42
-10 106 0 96 2 105 18 100 9 -3 24 -1 32 4 21 14 27 13 50 -10z m147 5 c42
-30 34 -129 -12 -141 -14 -3 -32 -4 -40 0 -12 4 -15 -3 -15 -29 0 -24 -5 -35
-15 -35 -12 0 -15 18 -15 106 0 99 1 105 19 99 11 -3 22 -1 26 5 9 14 27 13
52 -5z m143 -5 c11 -11 20 -31 20 -45 0 -23 -4 -25 -45 -25 -32 0 -45 -4 -45
-14 0 -22 28 -39 55 -34 17 4 25 1 25 -8 0 -23 -64 -17 -86 7 -27 30 -24 97 6
121 29 23 45 23 70 -2z m85 10 c9 14 25 13 25 -3 0 -7 -9 -18 -20 -25 -16 -10
-20 -23 -20 -67 0 -30 -4 -55 -10 -55 -6 0 -10 34 -10 81 0 69 2 80 14 70 10
-8 16 -9 21 -1z m135 -6 c0 -11 -6 -13 -19 -9 -25 8 -51 -19 -51 -53 0 -37 14
-56 42 -57 35 -2 37 -20 2 -23 -41 -4 -69 27 -69 80 0 30 6 45 24 59 29 23 71
25 71 3z m58 -51 c2 -42 7 -63 17 -67 27 -10 45 23 45 80 0 30 5 54 10 54 6 0
10 -34 10 -81 0 -69 -2 -80 -14 -70 -10 8 -16 9 -21 1 -11 -17 -43 -11 -59 12
-20 28 -23 142 -3 136 7 -3 13 -28 15 -65z m432 56 c0 -8 5 -7 15 1 9 7 19 10
23 6 4 -4 -2 -14 -12 -22 -14 -10 -21 -30 -24 -69 -7 -81 -22 -67 -22 20 0 43
4 75 10 75 6 0 10 -5 10 -11z m150 -8 c15 -29 13 -132 -2 -129 -7 1 -23 -2
-36 -6 -30 -10 -52 9 -52 44 0 30 14 46 45 52 31 5 25 33 -7 33 -16 -1 -28 5
-28 12 0 22 68 16 80 -6z m-1723 -426 c50 -21 72 -42 94 -90 69 -149 -75 -308
-226 -251 -67 26 -125 105 -125 171 0 32 25 90 53 122 54 62 129 79 204 48z
m1303 -40 c0 -8 9 -15 20 -15 11 0 20 -5 20 -11 0 -6 -9 -13 -20 -16 -16 -4
-20 -14 -20 -43 0 -48 8 -70 26 -70 19 0 18 -19 -1 -26 -29 -12 -45 16 -45 77
0 33 -4 59 -10 59 -5 0 -10 7 -10 15 0 8 5 15 10 15 6 0 10 7 10 15 0 8 5 15
10 15 6 0 10 -7 10 -15z m-743 -62 c27 -66 -9 -131 -67 -120 -29 6 -30 6 -30
-33 0 -22 -4 -40 -9 -40 -8 0 -21 116 -21 191 0 35 2 38 30 37 17 -1 33 1 36
4 13 14 48 -8 61 -39z m144 28 c19 -15 24 -29 24 -64 0 -60 -27 -91 -72 -84
-32 6 -33 5 -33 -29 0 -19 -4 -34 -9 -34 -6 0 -11 49 -13 109 l-3 110 28 -1
c15 -1 30 2 34 5 10 11 19 8 44 -12z m142 7 c9 -7 20 -28 23 -45 l7 -33 -46 0
c-54 0 -62 -8 -40 -39 12 -18 22 -22 45 -17 21 4 28 2 26 -7 -8 -22 -65 -20
-87 2 -30 30 -28 94 4 126 27 28 43 31 68 13z m127 -2 c0 -7 -9 -16 -19 -19
-17 -4 -20 -15 -23 -68 -2 -39 -8 -64 -15 -67 -10 -3 -13 17 -13 78 0 65 3 81
13 77 8 -3 20 -1 28 4 20 12 29 11 29 -5z m118 -3 c2 -9 -7 -13 -25 -13 -37 0
-53 -16 -53 -55 0 -39 16 -55 53 -55 39 0 30 -24 -10 -28 -65 -7 -98 93 -48
144 27 27 75 30 83 7z m52 -37 c0 -67 7 -86 31 -86 26 0 39 30 39 89 0 28 5
51 10 51 6 0 10 -33 10 -79 0 -69 -2 -80 -17 -80 -10 1 -27 -2 -39 -6 -37 -12
-54 18 -54 96 0 39 4 69 10 69 6 0 10 -24 10 -54z m310 -3 c0 -66 9 -86 36
-81 16 3 20 15 24 67 3 39 10 66 18 69 9 3 12 -17 12 -76 0 -76 -1 -80 -22
-79 -13 0 -30 -3 -38 -7 -33 -14 -52 17 -58 92 -4 62 -2 72 12 72 13 0 16 -11
16 -57z m150 45 c0 -9 3 -9 12 0 20 20 65 14 82 -10 21 -29 20 -87 0 -117 -13
-18 -24 -22 -50 -19 -33 4 -34 3 -34 -34 0 -27 -4 -38 -15 -38 -12 0 -15 19
-15 115 0 70 4 115 10 115 6 0 10 -5 10 -12z m-1300 -51 c0 -64 19 -98 47 -81
14 8 19 26 21 73 4 77 22 81 22 4 0 -32 3 -68 6 -80 5 -17 2 -23 -10 -23 -9 0
-16 5 -16 12 0 9 -3 9 -12 0 -7 -7 -21 -12 -33 -12 -12 0 -26 5 -33 12 -15 15
-16 148 -2 148 6 0 10 -24 10 -53z m1093 -93 c-3 -8 -9 -14 -13 -14 -14 0 -22
20 -16 37 5 12 9 13 21 3 7 -6 11 -18 8 -26z m-2935 -339 c142 -60 165 -255
40 -345 -97 -70 -239 -34 -295 74 -21 40 -21 132 0 172 49 95 161 138 255 99z
m3552 -155 c45 -45 7 -140 -56 -140 -8 0 -14 5 -14 10 0 6 8 10 18 10 18 0 42
18 42 31 0 4 -15 9 -32 11 -29 3 -33 7 -36 35 -2 23 3 35 20 47 29 20 34 20
58 -4z m114 7 c23 -17 31 -85 14 -117 -8 -14 -23 -26 -35 -28 -33 -5 -53 24
-53 78 0 39 4 52 22 64 27 19 30 19 52 3z m258 7 c6 -6 -47 -132 -63 -148 -23
-24 -17 8 10 63 17 33 31 63 31 66 0 3 -16 5 -36 5 -21 0 -33 4 -29 10 7 11
78 14 87 4z m112 -16 c25 -35 20 -76 -13 -109 -16 -16 -37 -29 -45 -29 -26 0
-18 15 14 27 35 13 40 33 7 33 -31 0 -47 18 -47 52 0 47 57 65 84 26z m116
-28 c0 -33 4 -50 13 -51 10 0 10 -2 0 -6 -7 -2 -13 -13 -13 -24 0 -10 -4 -19
-10 -19 -5 0 -10 9 -10 20 0 16 -7 20 -35 20 -19 0 -35 3 -35 8 1 13 70 102
80 102 6 0 10 -22 10 -50z m150 -25 c0 -43 -4 -75 -10 -75 -6 0 -10 28 -10 65
0 57 -2 64 -17 58 -16 -6 -16 -5 -4 10 30 37 41 21 41 -58z m140 55 c14 -26 7
-47 -25 -82 l-26 -28 31 0 c16 0 30 -4 30 -10 0 -5 -20 -10 -45 -10 -25 0 -45
3 -45 6 0 4 16 24 36 46 43 48 42 72 -4 76 -39 4 -33 22 8 22 19 0 33 -7 40
-20z m120 1 c15 -29 13 -37 -21 -76 l-31 -35 31 0 c17 0 31 -4 31 -10 0 -5
-23 -10 -52 -10 l-52 0 31 33 c17 17 36 43 43 56 11 21 10 26 -4 37 -9 6 -26
9 -38 6 -14 -3 -19 -1 -14 6 12 20 64 14 76 -7z m117 3 c3 -9 1 -24 -5 -34 -8
-13 -7 -21 6 -33 13 -13 13 -21 4 -42 -9 -20 -19 -25 -47 -25 -19 0 -35 5 -35
11 0 6 8 8 18 5 10 -4 27 0 37 8 16 12 17 16 6 30 -7 9 -20 16 -27 16 -22 0
-16 17 7 23 32 9 20 42 -14 40 -15 -1 -27 2 -27 8 0 17 70 10 77 -7z m-2596
-4 c20 -11 26 -45 9 -55 -7 -4 -5 -14 5 -28 19 -27 19 -32 -1 -51 -20 -20 -58
-20 -78 0 -20 20 -20 29 0 49 13 12 13 19 4 30 -15 18 -4 52 18 58 9 3 18 5
20 6 2 0 12 -4 23 -9z m123 -9 c23 -25 30 -80 14 -111 -20 -37 -68 -35 -86 3
-18 37 -8 92 21 112 27 19 30 19 51 -4z m240 3 c24 -23 19 -49 -15 -89 l-31
-35 31 0 c17 0 31 -4 31 -10 0 -5 -20 -10 -45 -10 -25 0 -45 2 -45 5 0 3 16
26 35 51 43 56 42 80 -3 78 -32 -2 -43 10 -19 19 24 10 46 7 61 -9z m126 7 c0
-5 -11 -12 -24 -15 -13 -3 -26 -13 -30 -21 -4 -11 2 -15 25 -15 41 0 59 -38
35 -75 -33 -50 -91 -22 -91 45 0 34 6 47 28 66 28 24 57 32 57 15z m104 3 c18
-7 22 -49 5 -60 -8 -5 -6 -10 5 -16 24 -13 20 -45 -9 -64 -26 -17 -56 -16 -62
2 -2 7 5 10 20 7 31 -6 55 21 37 42 -7 8 -19 15 -26 15 -21 0 -17 17 6 23 33
9 25 37 -11 37 -17 0 -28 4 -24 10 7 11 35 13 59 4z m188 -19 c9 -21 7 -30
-13 -60 -13 -19 -27 -35 -31 -35 -5 0 -8 -4 -8 -9 0 -6 15 -12 33 -14 21 -2
13 -4 -23 -5 l-54 -2 36 38 c20 20 37 44 38 52 5 36 0 42 -30 38 -29 -4 -37 1
-23 15 3 4 19 7 35 7 21 0 32 -7 40 -25z m118 15 c0 -5 -13 -10 -30 -10 -23 0
-30 -4 -30 -20 0 -15 7 -20 25 -20 29 0 49 -31 40 -61 -8 -24 -44 -40 -74 -32
-29 7 -17 21 13 16 33 -7 53 28 30 51 -8 9 -25 16 -36 16 -16 0 -19 5 -14 23
3 12 6 28 6 35 0 7 14 12 35 12 19 0 35 -4 35 -10z m119 -12 c11 -30 4 -52
-25 -79 -30 -28 -30 -37 0 -32 13 3 27 0 30 -6 5 -7 -10 -11 -45 -11 l-51 0
36 40 c22 24 36 50 36 66 0 23 -3 26 -30 22 -29 -4 -37 1 -23 15 3 4 19 7 35
7 20 0 31 -6 37 -22z m121 12 c0 -5 -13 -10 -30 -10 -38 0 -41 -27 -5 -36 64
-16 47 -94 -20 -94 -19 0 -35 5 -35 11 0 6 8 8 19 4 29 -9 51 5 51 31 0 19 -7
26 -30 31 -31 6 -34 12 -24 51 5 17 14 22 40 22 19 0 34 -4 34 -10z m220 -16
c23 -60 0 -124 -45 -124 -29 0 -45 26 -45 75 0 52 15 75 51 75 22 0 32 -6 39
-26z m-2509 6 c20 -11 26 -45 9 -55 -6 -4 -4 -15 5 -29 13 -19 13 -25 -1 -44
-18 -26 -56 -29 -78 -6 -20 19 -20 24 -1 51 10 14 12 24 5 28 -16 10 -12 43 8
54 22 13 29 13 53 1z m123 -12 c8 -13 8 -23 -2 -38 -7 -11 -8 -20 -3 -20 19 0
23 -41 5 -61 -18 -20 -59 -26 -69 -9 -4 6 7 10 24 10 17 0 31 2 31 4 0 2 3 11
6 19 4 10 -4 21 -22 30 -27 14 -27 15 -5 22 32 10 23 40 -12 40 -28 -1 -36 10
-14 19 22 9 50 1 61 -16z m126 13 c0 -5 -12 -11 -27 -13 -33 -4 -46 -38 -15
-38 10 0 27 -9 37 -20 36 -40 -24 -99 -72 -71 -15 9 -14 10 13 11 40 0 62 23
44 45 -7 8 -24 15 -37 15 -23 0 -24 3 -18 33 4 17 9 35 12 40 6 10 63 9 63 -2z
m164 -7 c35 -35 12 -144 -31 -144 -26 0 -53 39 -53 78 0 67 47 104 84 66z
m116 -29 c0 -31 5 -47 18 -54 9 -6 11 -11 5 -11 -7 0 -13 -9 -13 -20 0 -26
-16 -26 -23 -1 -3 14 -15 21 -41 23 l-37 3 37 53 c20 28 41 52 45 52 5 0 9
-20 9 -45z m125 35 c-3 -5 -12 -10 -19 -10 -7 0 -21 -10 -32 -21 -19 -21 -19
-22 3 -15 56 17 89 -55 41 -88 -29 -20 -34 -20 -58 4 -29 29 -27 84 5 115 23
24 73 36 60 15z m125 0 c0 -5 -13 -10 -30 -10 -23 0 -30 -4 -30 -20 0 -13 7
-20 19 -20 45 0 55 -65 13 -86 -25 -13 -62 -8 -62 8 0 5 8 7 19 3 29 -9 51 5
51 31 0 19 -7 26 -30 31 -30 6 -37 23 -24 57 7 18 74 23 74 6z m266 -15 c11
-17 15 -37 11 -61 -7 -45 -23 -64 -52 -64 -32 0 -48 25 -48 75 0 24 5 51 13
59 19 24 57 20 76 -9z m-1517 1 c19 -22 23 -78 9 -106 -10 -18 -22 -25 -43
-25 -36 0 -58 35 -51 83 6 43 22 62 51 62 12 0 28 -6 34 -14z m126 -6 c4 -12
2 -26 -3 -33 -7 -8 -6 -18 4 -31 18 -25 18 -31 -2 -50 -22 -23 -71 -20 -84 3
-11 22 -4 51 13 51 7 0 7 4 -1 12 -13 13 -16 50 -5 61 3 4 21 7 39 7 24 0 34
-5 39 -20z m95 -55 c0 -43 -4 -75 -10 -75 -6 0 -10 29 -10 66 0 55 -3 65 -15
60 -8 -3 -15 -1 -15 3 0 5 6 12 13 14 33 14 37 7 37 -68z m3068 8 c-10 -2 -26
-2 -35 0 -10 3 -2 5 17 5 19 0 27 -2 18 -5z m-1410 -10 c-10 -2 -26 -2 -35 0
-10 3 -2 5 17 5 19 0 27 -2 18 -5z m-1510 -10 c-10 -2 -26 -2 -35 0 -10 3 -2
5 17 5 19 0 27 -2 18 -5z m2447 -35 c-10 -31 -25 -47 -25 -26 0 24 11 48 22
48 5 0 6 -10 3 -22z m-1455 5 c-1 -5 -7 -19 -15 -33 l-14 -25 -1 26 c0 14 3
29 7 32 9 9 23 9 23 0z"/>
<path d="M7191 2494 c0 -11 3 -14 6 -6 3 7 2 16 -1 19 -3 4 -6 -2 -5 -13z"/>
<path d="M7222 2438 l0 -63 10 54 c6 34 6 57 0 63 -6 6 -9 -13 -10 -54z"/>
<path d="M6050 2429 l0 -42 42 7 c53 9 58 12 58 41 0 26 -17 35 -66 35 -33 0
-34 -1 -34 -41z"/>
<path d="M6205 2277 c5 -18 3 -27 -5 -27 -10 0 -10 -4 0 -15 10 -12 15 -13 21
-4 4 8 9 4 14 -10 3 -11 11 -21 17 -21 5 0 -2 21 -18 48 -35 60 -37 63 -29 29z"/>
<path d="M5000 2415 c0 -43 1 -45 30 -45 40 0 74 33 61 59 -12 21 -32 31 -67
31 -22 0 -24 -4 -24 -45z"/>
<path d="M4891 1748 c1 -7 -4 -34 -12 -60 l-13 -48 -53 0 c-40 0 -53 -4 -53
-15 0 -11 12 -15 49 -15 48 0 48 0 55 -37 3 -21 6 -57 6 -80 0 -37 3 -43 21
-43 21 0 21 3 15 79 l-7 80 48 3 c59 4 63 22 6 26 -46 3 -50 11 -33 56 13 34
40 34 40 0 0 -19 5 -25 18 -22 24 5 29 58 6 75 -23 17 -96 17 -93 1z"/>
<path d="M6912 1638 c-17 -17 -15 -73 4 -89 33 -27 64 21 50 77 -7 26 -34 32
-54 12z"/>
<path d="M6400 1676 c0 -29 4 -36 19 -36 10 0 24 7 32 16 16 20 1 48 -30 52
-18 3 -21 -1 -21 -32z"/>
<path d="M6400 1579 c0 -38 1 -40 28 -37 47 5 39 78 -9 78 -16 0 -19 -8 -19
-41z"/>
<path d="M5468 1615 c-17 -38 0 -80 32 -80 18 0 27 8 34 27 13 36 -6 78 -34
78 -12 0 -25 -10 -32 -25z"/>
<path d="M5624 1626 c-3 -8 -4 -31 -2 -52 2 -29 8 -40 22 -43 37 -6 63 68 34
97 -16 16 -47 15 -54 -2z"/>
<path d="M5772 1638 c-21 -21 -13 -38 18 -38 23 0 30 5 30 19 0 10 -7 22 -16
25 -20 8 -18 8 -32 -6z"/>
<path d="M6643 1589 c-30 -11 -31 -49 -3 -49 22 0 34 19 28 43 -2 11 -9 12
-25 6z"/>
<path d="M4797 1154 c-4 -4 -7 -18 -7 -30 0 -17 7 -24 28 -27 l27 -4 -27 -2
c-27 -1 -28 -3 -28 -60 0 -38 5 -63 14 -70 9 -8 46 -11 103 -9 l88 3 3 67 c3
62 1 67 -20 71 l-23 4 23 2 c19 1 23 6 20 29 l-3 27 -95 3 c-53 1 -99 0 -103
-4z m51 -27 c3 -12 -3 -17 -22 -17 -25 0 -35 18 -19 34 12 12 38 2 41 -17z
m140 0 c2 -11 -3 -17 -17 -17 -23 0 -35 15 -26 31 10 15 39 6 43 -14z m-63
-19 c27 -12 32 -36 15 -69 -12 -22 -59 -26 -78 -7 -18 18 -15 65 6 77 22 13
26 13 57 -1z"/>
<path d="M5441 1121 c-16 -28 -14 -76 4 -91 37 -31 78 23 59 78 -12 34 -48 42
-63 13z"/>
<path d="M5600 1121 c-21 -39 -2 -101 30 -101 33 0 54 82 28 108 -18 18 -46
14 -58 -7z"/>
<path d="M5750 1121 c-10 -19 -8 -21 25 -21 29 0 36 3 33 18 -5 25 -44 27 -58
3z"/>
<path d="M6592 1138 c-17 -17 -15 -83 3 -98 36 -30 77 28 54 76 -16 32 -38 41
-57 22z"/>
<path d="M3254 575 c-9 -23 40 -120 72 -142 30 -21 87 -43 110 -43 9 0 14 11
14 29 0 23 -5 30 -26 35 -18 5 -32 2 -44 -9 -16 -14 -20 -13 -49 14 -32 30
-38 50 -20 68 5 5 7 22 3 37 -4 19 -13 26 -30 26 -14 0 -27 -7 -30 -15z"/>
<path d="M6927 514 c-13 -13 -7 -55 9 -61 24 -9 51 23 38 45 -12 19 -36 27
-47 16z"/>
<path d="M7045 497 c-4 -13 -5 -39 -3 -58 2 -26 8 -34 23 -34 26 0 42 45 29
82 -12 37 -41 42 -49 10z"/>
<path d="M7407 513 c-12 -12 -7 -51 7 -56 23 -9 49 17 42 41 -7 21 -35 30 -49
15z"/>
<path d="M7537 481 c-22 -37 -21 -41 3 -41 16 0 20 7 20 35 0 19 -1 35 -3 35
-1 0 -10 -13 -20 -29z"/>
<path d="M5464 495 c-4 -9 -2 -21 4 -27 15 -15 44 -1 40 19 -4 23 -36 29 -44
8z"/>
<path d="M5467 433 c-12 -11 -7 -41 7 -46 8 -3 22 0 32 8 15 11 16 15 5 29
-14 17 -33 21 -44 9z"/>
<path d="M5587 503 c-12 -22 -16 -64 -7 -87 22 -58 68 -6 52 57 -8 30 -35 48
-45 30z"/>
<path d="M5941 446 c-16 -19 3 -56 28 -56 24 0 34 26 21 51 -13 23 -33 25 -49
5z"/>
<path d="M6812 508 c-17 -17 -15 -93 2 -107 33 -27 61 52 36 100 -12 22 -21
24 -38 7z"/>
<path d="M4314 485 c-4 -9 -2 -21 4 -27 15 -15 44 -1 40 19 -4 23 -36 29 -44
8z"/>
<path d="M4308 418 c-9 -23 3 -38 29 -38 20 0 24 4 21 23 -3 25 -42 37 -50 15z"/>
<path d="M4721 481 c-21 -39 -6 -101 24 -101 31 0 34 112 3 118 -9 2 -21 -6
-27 -17z"/>
<path d="M4846 455 c-20 -31 -20 -35 3 -35 13 0 20 9 23 30 5 36 -4 38 -26 5z"/>
<path d="M4953 434 c-8 -22 9 -49 33 -49 30 0 27 59 -4 63 -14 2 -25 -3 -29
-14z"/>
<path d="M5352 498 c-15 -15 -16 -90 -1 -105 30 -30 60 37 40 90 -12 30 -21
33 -39 15z"/>
<path d="M3840 485 c-31 -37 -6 -127 29 -106 19 12 19 87 0 106 -14 15 -17 14
-29 0z"/>
<path d="M3954 485 c-4 -9 -2 -21 4 -27 15 -15 44 -1 40 19 -4 23 -36 29 -44
8z"/>
<path d="M3950 415 c-11 -13 -11 -19 3 -32 21 -21 49 -9 45 19 -4 28 -30 35
-48 13z"/>
</g>
</svg>
